<svg width="1600" height="900" viewBox="0 0 1600 900" fill="none" xmlns="http://www.w3.org/2000/svg">
  <rect width="1600" height="900" fill="#020617"/>
  <circle cx="404" cy="226" r="2" fill="#F8FAFC"/>
  <circle cx="1120" cy="178" r="3" fill="#F8FAFC"/>
  <circle cx="1250" cy="278" r="2" fill="#F8FAFC"/>
  <circle cx="1344" cy="154" r="2" fill="#F8FAFC"/>
  <circle cx="982" cy="132" r="2" fill="#F8FAFC"/>
  <circle cx="286" cy="328" r="3" fill="#F8FAFC"/>
  <circle cx="1388" cy="322" r="2" fill="#F8FAFC"/>
  <circle cx="1052" cy="410" r="2" fill="#F8FAFC"/>
  <circle cx="842" cy="198" r="3" fill="#F8FAFC"/>
  <circle cx="720" cy="112" r="2" fill="#F8FAFC"/>
  <circle cx="288" cy="720" r="240" fill="#172554"/>
  <circle cx="1236" cy="244" r="132" fill="#1D4ED8" fill-opacity="0.2"/>
  <path d="M650 472C780 360 946 318 1084 350C1208 378 1280 472 1272 590C1262 728 1132 810 982 802C836 794 700 690 650 472Z" fill="#0F172A" stroke="#334155" stroke-width="4"/>
  <path d="M792 460L1066 596" stroke="#7DD3FC" stroke-width="10" stroke-linecap="round"/>
  <path d="M884 420L1150 514" stroke="#16C79A" stroke-width="10" stroke-linecap="round"/>
  <path d="M944 346C968 296 1028 274 1078 298C1130 322 1154 386 1128 438C1104 488 1044 510 994 486C942 462 920 398 944 346Z" fill="#E2E8F0"/>
  <path d="M1000 332L1082 372L1028 442L952 408L1000 332Z" fill="#F97316"/>
  <path d="M1038 366L1086 390" stroke="#0F172A" stroke-width="8" stroke-linecap="round"/>
</svg>
