<svg width="540" height="380" viewBox="0 0 540 380" fill="none" xmlns="http://www.w3.org/2000/svg">
  <rect width="540" height="380" rx="36" fill="#0D1425"/>
  <rect x="42" y="54" width="456" height="272" rx="26" fill="url(#panel)"/>
  <path d="M98 242C132 206 170 188 210 188C270 188 290 234 342 234C378 234 410 220 438 198" stroke="#7EE6C7" stroke-width="8" stroke-linecap="round"/>
  <path d="M98 214C134 174 170 152 214 152C272 152 292 200 344 200C378 200 410 188 438 166" stroke="white" stroke-opacity="0.56" stroke-width="6" stroke-linecap="round"/>
  <circle cx="136" cy="112" r="26" fill="#16C79A"/>
  <circle cx="402" cy="102" r="18" fill="#F97316"/>
  <circle cx="374" cy="256" r="34" fill="#1F3260"/>
  <rect x="116" y="282" width="98" height="16" rx="8" fill="white" fill-opacity="0.78"/>
  <rect x="116" y="306" width="66" height="12" rx="6" fill="#7EE6C7"/>
  <defs>
    <linearGradient id="panel" x1="82" y1="76" x2="458" y2="304" gradientUnits="userSpaceOnUse">
      <stop stop-color="#15213C"/>
      <stop offset="1" stop-color="#20335D"/>
    </linearGradient>
  </defs>
</svg>
